<svg width="50" height="50" viewBox="0 0 50 50" fill="none" xmlns="http://www.w3.org/2000/svg">
<path d="M41.25 12.2812C31.6562 12.2812 22.0625 12.2812 12.4687 12.2812H11.7187C11.3593 11.0312 11.0156 9.82811 10.6562 8.62499C10.4218 7.81249 10.0468 7.53124 9.20309 7.51561C8.35934 7.51561 7.53122 7.51561 6.68747 7.51561C5.70309 7.51561 4.71872 7.49999 3.73434 7.51561C2.98434 7.53124 2.46872 8.06249 2.46872 8.73436C2.46872 9.42186 2.98434 9.87499 3.76559 9.89061C4.57809 9.89061 5.40622 9.89061 6.21872 9.89061H8.56247C10.2656 15.8437 11.9375 21.7187 13.625 27.5781C13.9843 28.8281 14.2812 29.9531 13.6562 31.3281C12.7187 33.4062 14.5468 35.8125 16.8437 35.8594C17.5312 35.8594 18.25 35.8594 19.0156 35.8594C17.5781 36.25 16.5156 37.5469 16.5156 39.1094C16.5156 40.9844 18.0312 42.4844 19.8906 42.4844C21.75 42.4844 23.2656 40.9687 23.2656 39.1094C23.2656 37.5625 22.2187 36.2812 20.8125 35.875H31.8437C30.4375 36.2812 29.3906 37.5625 29.3906 39.1094C29.3906 40.9844 30.9062 42.4844 32.7656 42.4844C34.625 42.4844 36.1406 40.9687 36.1406 39.1094C36.1406 37.5625 35.0937 36.2812 33.6875 35.875H35.5C35.9531 35.875 36.4218 35.8594 36.875 35.8594C37.4375 35.8594 37.7812 35.5625 37.9531 35.0625C38.1093 34.5781 38.0156 34.0937 37.5937 33.8281C37.2968 33.6406 36.8906 33.5625 36.5468 33.5625C30.1875 33.5625 23.8281 33.5625 17.4687 33.5625C17.1718 33.5625 16.875 33.5469 16.5937 33.4687C16.0468 33.2969 15.7187 32.75 15.7968 32.2031C15.9062 31.4844 16.2187 31.2031 16.9375 31.2031C23.4687 31.2031 30 31.2031 36.5312 31.2031C37.4375 31.2031 37.8281 30.9219 38.0625 30.1094C39.5937 24.7812 41.1093 19.4687 42.625 14.1406C42.9843 12.9062 42.5156 12.3125 41.2187 12.3125L41.25 12.2812Z" fill="#8E36B7"/>
</svg>
